<svg width="28" height="28" viewBox="0 0 28 28" fill="none" xmlns="http://www.w3.org/2000/svg">
<g clip-path="url(#clip0_59_35)">
<path d="M25.375 14C25.375 17.0168 24.1766 19.9101 22.0433 22.0433C19.9101 24.1766 17.0168 25.375 14 25.375C10.9832 25.375 8.08989 24.1766 5.95666 22.0433C3.82343 19.9101 2.625 17.0168 2.625 14C2.625 10.9832 3.82343 8.08989 5.95666 5.95666C8.08989 3.82343 10.9832 2.625 14 2.625C17.0168 2.625 19.9101 3.82343 22.0433 5.95666C24.1766 8.08989 25.375 10.9832 25.375 14ZM0 14C0 17.713 1.475 21.274 4.10051 23.8995C6.72601 26.525 10.287 28 14 28C17.713 28 21.274 26.525 23.8995 23.8995C26.525 21.274 28 17.713 28 14C28 10.287 26.525 6.72601 23.8995 4.10051C21.274 1.475 17.713 0 14 0C10.287 0 6.72601 1.475 4.10051 4.10051C1.475 6.72601 0 10.287 0 14ZM12.6875 6.5625V14C12.6875 14.4375 12.9062 14.8477 13.2727 15.0938L18.5227 18.5938C19.1242 18.9984 19.9391 18.8344 20.3438 18.2273C20.7484 17.6203 20.5844 16.8109 19.9773 16.4062L15.3125 13.3V6.5625C15.3125 5.83516 14.7273 5.25 14 5.25C13.2727 5.25 12.6875 5.83516 12.6875 6.5625Z" fill="white"/>
</g>
<defs>
<clipPath id="clip0_59_35">
<rect width="28" height="28" fill="white"/>
</clipPath>
</defs>
</svg>
