<svg width="20" height="20" viewBox="0 0 20 20" fill="none" xmlns="http://www.w3.org/2000/svg">
<g clip-path="url(#clip0_62_375)">
<path d="M1.8587 11.7344L8.91473 18.3242C9.20759 18.5977 9.59417 18.75 9.99637 18.75C10.3986 18.75 10.7851 18.5977 11.078 18.3242L18.134 11.7344C19.3211 10.6289 19.9927 9.07812 19.9927 7.45703V7.23047C19.9927 4.5 18.0208 2.17187 15.3304 1.72266C13.5498 1.42578 11.7379 2.00781 10.4649 3.28125L9.99637 3.75L9.52779 3.28125C8.25481 2.00781 6.44297 1.42578 4.66237 1.72266C1.97194 2.17187 0 4.5 0 7.23047V7.45703C0 9.07812 0.671631 10.6289 1.8587 11.7344Z" fill="#FF0000"/>
</g>
<defs>
<clipPath id="clip0_62_375">
<rect width="19.9927" height="20" fill="white"/>
</clipPath>
</defs>
</svg>
