<svg width="21" height="20" viewBox="0 0 21 20" fill="none" xmlns="http://www.w3.org/2000/svg">
<g clip-path="url(#clip0_62_361)">
<path d="M9.76096 18.2891L9.66333 18.1992L2.82207 11.8438C1.62329 10.7305 0.943848 9.16797 0.943848 7.53125V7.40234C0.943848 4.65234 2.89626 2.29297 5.59841 1.77734C7.13691 1.48047 8.71056 1.83594 9.96401 2.71875C10.3154 2.96875 10.6434 3.25781 10.9402 3.58984C11.1042 3.40234 11.2799 3.23047 11.4674 3.07031C11.6118 2.94531 11.7602 2.82813 11.9164 2.71875C13.1699 1.83594 14.7435 1.48047 16.282 1.77344C18.9842 2.28906 20.9366 4.65234 20.9366 7.40234V7.53125C20.9366 9.16797 20.2571 10.7305 19.0584 11.8438L12.2171 18.1992L12.1195 18.2891C11.7993 18.5859 11.3776 18.7539 10.9402 18.7539C10.5029 18.7539 10.0812 18.5898 9.76096 18.2891ZM10.2803 5.66406C10.2647 5.65234 10.253 5.63672 10.2413 5.62109L9.54619 4.83984L9.54228 4.83594C8.64027 3.82422 7.27748 3.36328 5.94984 3.61719C4.13019 3.96484 2.81817 5.55078 2.81817 7.40234V7.53125C2.81817 8.64453 3.28284 9.71094 4.09895 10.4688L10.9402 16.8242L17.7815 10.4688C18.5976 9.71094 19.0623 8.64453 19.0623 7.53125V7.40234C19.0623 5.55469 17.7502 3.96484 15.9345 3.61719C14.6068 3.36328 13.2402 3.82813 12.342 4.83594C12.342 4.83594 12.342 4.83594 12.3381 4.83984C12.3342 4.84375 12.3381 4.83984 12.3342 4.84375L11.6392 5.625C11.6275 5.64063 11.6118 5.65234 11.6001 5.66797C11.4244 5.84375 11.1862 5.94141 10.9402 5.94141C10.6942 5.94141 10.456 5.84375 10.2803 5.66797V5.66406Z" fill="white"/>
</g>
<defs>
<clipPath id="clip0_62_361">
<rect width="19.9927" height="20" fill="white" transform="translate(0.943848)"/>
</clipPath>
</defs>
</svg>
