<svg width="21" height="20" viewBox="0 0 21 20" fill="none" xmlns="http://www.w3.org/2000/svg">
<path d="M10.5 0C12.3984 0 14.1543 0.380947 15.7676 1.14284C17.3809 1.90473 18.6563 2.94076 19.5937 4.25089C20.5312 5.56098 21 6.99005 21 8.53804C21 10.086 20.5312 11.5171 19.5937 12.8313C18.6563 14.1454 17.3828 15.1834 15.7734 15.9453C14.164 16.7072 12.4062 17.0882 10.5 17.0882C9.89845 17.0882 9.27732 17.0438 8.63672 16.9551C5.85545 18.9465 4.37501 19.9543 4.19532 19.9785C4.10938 20.0108 4.02732 20.0067 3.94921 19.9664C3.91795 19.9422 3.89453 19.91 3.8789 19.8696C3.86326 19.8293 3.85547 19.7931 3.85547 19.7608V19.7125C3.90236 19.398 4.2578 18.0879 4.92188 15.7821C3.41406 15.0081 2.21679 13.9821 1.33008 12.7042C0.44336 11.4264 0 10.0376 0 8.53804C0 6.99005 0.46875 5.56098 1.40625 4.25089C2.34375 2.94076 3.61914 1.90473 5.23242 1.14284C6.8457 0.380947 8.60156 0 10.5 0Z" fill="black"/>
</svg>
