<svg width="18" height="15" viewBox="0 0 18 15" fill="none" xmlns="http://www.w3.org/2000/svg">
<g clip-path="url(#clip0_61_94)">
<path d="M10.2486 0.52861C10.0934 0.206403 9.76532 0.00136185 9.40503 0.00136185C9.04475 0.00136185 8.71961 0.206403 8.56144 0.52861L6.67799 4.40388L2.47172 5.02486C2.12022 5.07759 1.82731 5.32364 1.71893 5.66049C1.61055 5.99734 1.69843 6.36934 1.95033 6.61832L5.00251 9.63828L4.28194 13.9061C4.22336 14.2576 4.36982 14.6149 4.6598 14.8229C4.94979 15.0309 5.33351 15.0572 5.64986 14.8903L9.40796 12.8838L13.1661 14.8903C13.4824 15.0572 13.8661 15.0338 14.1561 14.8229C14.4461 14.612 14.5926 14.2576 14.534 13.9061L13.8105 9.63828L16.8627 6.61832C17.1146 6.36934 17.2054 5.99734 17.0941 5.66049C16.9828 5.32364 16.6928 5.07759 16.3413 5.02486L12.1321 4.40388L10.2486 0.52861Z" fill="#FFFF00"/>
</g>
<defs>
<clipPath id="clip0_61_94">
<rect width="16.8719" height="14.9973" fill="white" transform="translate(0.96582 0.00136185)"/>
</clipPath>
</defs>
</svg>
